# xmcd
#
# Track frame offsets: 
#        150
#        15567
#        31115
#        48391
#        65139
#        78245
#        92789
#        106528
#        120732
#        134853
#        149384
#        167475
#        189409
#        205836
#
# Disc length: 2950 seconds
#
# Revision: 1
# Processed by: cddbd v1.5.2PL0 Copyright (c) Steve Scherf et al.
# Submitted via: ExactAudioCopyFreeDBPlugin 1.0
#
DISCID=bb0b840e
DTITLE=Clara Louise - Die guten Zeiten
DYEAR=2018
DGENRE=Pop
TTITLE0=Aufstehen
TTITLE1=Bis wir bei uns sind
TTITLE2=Kein Beweis
TTITLE3=Schlieﬂ die Augen
TTITLE4=Sommer gerettet
TTITLE5=Kannst du sehen
TTITLE6=Die guten Zeiten
TTITLE7=Leben ohne dich
TTITLE8=Perfekter Moment
TTITLE9=Zu zweit
TTITLE10=Verlier dich
TTITLE11=Montag
TTITLE12=Bis wir bei uns sind (Salzburg Sessions)
TTITLE13=Montag (Salzburg Sessions)
EXTD=
EXTT0=
EXTT1=
EXTT2=
EXTT3=
EXTT4=
EXTT5=
EXTT6=
EXTT7=
EXTT8=
EXTT9=
EXTT10=
EXTT11=
EXTT12=
EXTT13=
PLAYORDER=
